<svg width="481" height="2033" viewBox="0 0 481 2033" fill="none" xmlns="http://www.w3.org/2000/svg">
<rect x="58.3311" y="1658.5" width="360" height="240" stroke="black"/>
<rect x="58.3311" y="134.5" width="360" height="240" stroke="black"/>
<path d="M38.6831 1075.5C38.6191 1075.5 38.5871 1075.44 38.5871 1075.31C38.5871 1075.18 38.6191 1075.12 38.6831 1075.12C39.3657 1075.12 39.8777 1075.06 40.2191 1074.96C40.5817 1074.85 40.8484 1074.65 41.0191 1074.35C41.1897 1074.03 41.3284 1073.55 41.4351 1072.91L44.0591 1058.09C44.1231 1057.67 44.1551 1057.33 44.1551 1057.1C44.1551 1056.61 44.0057 1056.29 43.7071 1056.14C43.4297 1055.97 42.8964 1055.88 42.1071 1055.88C42.0644 1055.88 42.0431 1055.82 42.0431 1055.69C42.0431 1055.56 42.0644 1055.5 42.1071 1055.5L43.4511 1055.53C44.2191 1055.57 44.8377 1055.6 45.3071 1055.6C45.7977 1055.6 46.4484 1055.57 47.2591 1055.53L48.6031 1055.5C48.6457 1055.5 48.6671 1055.56 48.6671 1055.69C48.6671 1055.82 48.6457 1055.88 48.6031 1055.88C47.9204 1055.88 47.4084 1055.95 47.0671 1056.08C46.7257 1056.2 46.4697 1056.42 46.2991 1056.72C46.1497 1057.01 46.0111 1057.49 45.8831 1058.16L43.2591 1072.91C43.1737 1073.46 43.1311 1073.81 43.1311 1073.96C43.1311 1074.41 43.2697 1074.72 43.5471 1074.89C43.8457 1075.04 44.3897 1075.12 45.1791 1075.12C45.2431 1075.12 45.2751 1075.18 45.2751 1075.31C45.2751 1075.44 45.2431 1075.5 45.1791 1075.5C44.6244 1075.5 44.1764 1075.49 43.8351 1075.47L41.8831 1075.44L39.9951 1075.47C39.6751 1075.49 39.2377 1075.5 38.6831 1075.5ZM43.6111 1064.75H55.8671L55.7711 1065.42H43.5151L43.6111 1064.75ZM50.8431 1075.5C50.8004 1075.5 50.7791 1075.44 50.7791 1075.31C50.7791 1075.18 50.8004 1075.12 50.8431 1075.12C51.5471 1075.12 52.0697 1075.06 52.4111 1074.96C52.7524 1074.85 52.9977 1074.65 53.1471 1074.35C53.3177 1074.05 53.4564 1073.57 53.5631 1072.91L56.1551 1058.16C56.2404 1057.6 56.2831 1057.25 56.2831 1057.1C56.2831 1056.63 56.1337 1056.31 55.8351 1056.14C55.5577 1055.97 55.0351 1055.88 54.2671 1055.88C54.2031 1055.88 54.1711 1055.82 54.1711 1055.69C54.1711 1055.56 54.2031 1055.5 54.2671 1055.5L55.5791 1055.53C56.3471 1055.57 56.9764 1055.6 57.4671 1055.6C57.9364 1055.6 58.5764 1055.57 59.3871 1055.53L60.7311 1055.5C60.7737 1055.5 60.7951 1055.56 60.7951 1055.69C60.7951 1055.82 60.7737 1055.88 60.7311 1055.88C60.0484 1055.88 59.5364 1055.95 59.1951 1056.08C58.8537 1056.18 58.5977 1056.39 58.4271 1056.68C58.2564 1056.98 58.1177 1057.45 58.0111 1058.09L55.3871 1072.91C55.3231 1073.29 55.2911 1073.62 55.2911 1073.9C55.2911 1074.39 55.4297 1074.72 55.7071 1074.89C56.0057 1075.04 56.5497 1075.12 57.3391 1075.12C57.4031 1075.12 57.4351 1075.18 57.4351 1075.31C57.4351 1075.44 57.4031 1075.5 57.3391 1075.5C56.8057 1075.5 56.3791 1075.49 56.0591 1075.47L54.1391 1075.44L52.2191 1075.47C51.8777 1075.49 51.4191 1075.5 50.8431 1075.5ZM59.2238 1084.49C58.8398 1084.49 58.5305 1084.41 58.2958 1084.24C58.0398 1084.07 57.9118 1083.79 57.9118 1083.4C57.9118 1083.04 58.0291 1082.76 58.2638 1082.57C58.4985 1082.4 58.8185 1082.32 59.2238 1082.32C60.1198 1082.32 60.8558 1082.27 61.4318 1082.19C62.0078 1082.1 62.5411 1081.88 63.0318 1081.52C63.7571 1081 64.7065 1079.92 65.8798 1078.25C67.0745 1076.59 68.1731 1074.84 69.1758 1073C70.1785 1071.15 70.7971 1069.73 71.0318 1068.75C71.1385 1068.34 71.1918 1067.89 71.1918 1067.4C71.1918 1066.68 71.0211 1065.83 70.6798 1064.84C70.5091 1064.44 70.4238 1064.12 70.4238 1063.88C70.4238 1063.59 70.5305 1063.34 70.7438 1063.15C70.9571 1062.93 71.2345 1062.83 71.5758 1062.83C72.3865 1062.83 72.7918 1063.41 72.7918 1064.59C72.7918 1066.34 71.9598 1068.83 70.2958 1072.08C68.6531 1075.3 66.7545 1078.17 64.5998 1080.68C62.4451 1083.22 60.6531 1084.49 59.2238 1084.49ZM65.6238 1079.12C65.6451 1078.63 65.6558 1077.92 65.6558 1077C65.6558 1072.97 65.3251 1069.85 64.6638 1067.63C64.0238 1065.39 63.1385 1064.27 62.0078 1064.27C61.3465 1064.27 60.8131 1064.66 60.4078 1065.45C60.3865 1065.52 60.3225 1065.55 60.2158 1065.55C60.0665 1065.55 60.0025 1065.48 60.0238 1065.36C60.8345 1063.69 61.8265 1062.86 62.9998 1062.86C63.8958 1062.86 64.6638 1063.37 65.3038 1064.4C65.9438 1065.4 66.4345 1066.79 66.7758 1068.56C67.1171 1070.31 67.2878 1072.27 67.2878 1074.44C67.2878 1074.91 67.2665 1075.64 67.2238 1076.62L65.6238 1079.12ZM72.1633 1084.3C72.078 1084.32 72.0246 1084.27 72.0033 1084.14C71.982 1084.01 72.014 1083.94 72.0993 1083.92C72.5686 1083.83 72.9206 1083.71 73.1553 1083.56C73.39 1083.44 73.5713 1083.21 73.6993 1082.89C73.806 1082.59 73.9233 1082.1 74.0513 1081.42L77.3153 1063.15C77.3153 1063.11 77.4646 1062.96 77.7633 1062.7C78.062 1062.42 78.3286 1062.13 78.5633 1061.84C78.798 1061.54 78.9473 1061.2 79.0113 1060.81C79.0326 1060.73 79.0966 1060.69 79.2033 1060.72C79.3313 1060.74 79.3846 1060.79 79.3633 1060.88L75.7473 1081.2C75.6833 1081.56 75.6513 1081.85 75.6513 1082.06C75.6513 1082.47 75.7473 1082.75 75.9393 1082.92C76.1313 1083.09 76.4406 1083.18 76.8673 1083.18C76.974 1083.18 77.2193 1083.16 77.6033 1083.12H77.6353C77.6993 1083.12 77.742 1083.17 77.7633 1083.28C77.7846 1083.38 77.7526 1083.45 77.6673 1083.47L72.1633 1084.3ZM78.6273 1075.53C77.9233 1075.53 77.39 1075.51 77.0273 1075.47C76.686 1075.43 76.2806 1075.35 75.8113 1075.24L76.1313 1073.58C76.6433 1073.9 77.1553 1074.16 77.6673 1074.35C78.2006 1074.54 78.8193 1074.64 79.5233 1074.64C80.8673 1074.64 81.9446 1074.07 82.7553 1072.94C83.566 1071.81 84.0886 1070.32 84.3233 1068.46C84.3873 1068.01 84.4193 1067.57 84.4193 1067.15C84.4193 1065.1 83.534 1064.08 81.7633 1064.08C80.846 1064.08 79.9073 1064.33 78.9473 1064.84C77.9873 1065.36 76.782 1066.18 75.3313 1067.31L75.2673 1067.34C75.2033 1067.34 75.1393 1067.3 75.0753 1067.21C75.0326 1067.11 75.0433 1067.04 75.1073 1067.02C78.1366 1064.29 80.8033 1062.92 83.1073 1062.92C84.1313 1062.92 84.91 1063.21 85.4433 1063.79C85.9766 1064.34 86.2433 1065.16 86.2433 1066.25C86.2433 1066.59 86.2113 1066.98 86.1473 1067.4C85.9553 1068.83 85.4753 1070.18 84.7073 1071.44C83.9393 1072.67 83.0113 1073.67 81.9233 1074.41C80.8353 1075.16 79.7366 1075.53 78.6273 1075.53ZM91.9786 1075.88C90.6346 1075.88 89.6106 1075.46 88.9066 1074.6C88.2239 1073.73 87.8826 1072.61 87.8826 1071.24C87.8826 1070.77 87.9359 1070.22 88.0426 1069.58C88.2346 1068.49 88.6826 1067.43 89.3866 1066.38C90.0906 1065.31 90.9652 1064.44 92.0106 1063.76C93.0772 1063.07 94.1866 1062.73 95.3386 1062.73C96.1066 1062.73 96.6826 1062.89 97.0666 1063.21C97.4719 1063.51 97.6212 1063.93 97.5146 1064.46C97.3866 1065.12 96.9172 1065.76 96.1066 1066.38C95.3172 1066.98 94.3039 1067.49 93.0666 1067.92C91.8506 1068.32 90.5599 1068.6 89.1946 1068.75L89.2586 1068.33C90.9652 1068.1 92.3626 1067.71 93.4506 1067.18C94.5386 1066.65 95.1786 1065.96 95.3706 1065.13C95.4132 1064.92 95.4346 1064.77 95.4346 1064.68C95.4346 1064.32 95.2852 1064.05 94.9866 1063.88C94.6879 1063.69 94.3359 1063.6 93.9306 1063.6C92.9066 1063.6 92.0532 1064.05 91.3706 1064.97C90.6879 1065.89 90.2292 1067.07 89.9946 1068.52C89.8666 1069.19 89.8026 1069.81 89.8026 1070.41C89.8026 1071.73 90.0906 1072.8 90.6666 1073.61C91.2639 1074.4 92.1066 1074.8 93.1946 1074.8C94.4106 1074.8 95.4879 1074.44 96.4266 1073.74H96.4906C96.5546 1073.74 96.6079 1073.77 96.6506 1073.84C96.7146 1073.9 96.7146 1073.96 96.6506 1074.03C95.1572 1075.27 93.5999 1075.88 91.9786 1075.88ZM101.219 1075.24C101.539 1073.54 102.03 1071.71 102.691 1069.77C103.353 1067.83 104.089 1066.2 104.899 1064.88C105.71 1063.53 106.489 1062.86 107.235 1062.86C107.641 1062.86 108.035 1063.01 108.419 1063.31C108.803 1063.61 108.995 1063.96 108.995 1064.36C108.995 1064.68 108.889 1064.95 108.675 1065.16C108.483 1065.36 108.238 1065.45 107.939 1065.45C107.705 1065.45 107.513 1065.41 107.363 1065.32C107.235 1065.22 107.097 1065.06 106.947 1064.84C106.862 1064.74 106.766 1064.64 106.659 1064.56C106.553 1064.45 106.435 1064.4 106.307 1064.4C105.838 1064.4 105.273 1065.01 104.611 1066.25C103.971 1067.49 103.363 1068.97 102.787 1070.7C102.211 1072.43 101.795 1073.95 101.539 1075.28L101.219 1075.24ZM100.515 1075.76C100.238 1075.76 100.046 1075.73 99.9393 1075.69C99.854 1075.67 99.8113 1075.63 99.8113 1075.56L99.9713 1074.83L100.291 1073.13L101.347 1067.21C101.475 1066.51 101.539 1065.95 101.539 1065.55C101.539 1064.59 101.283 1064.11 100.771 1064.11C100.302 1064.11 99.6513 1064.5 98.8193 1065.29L98.7553 1065.32C98.6913 1065.32 98.638 1065.29 98.5953 1065.23C98.5526 1065.14 98.542 1065.08 98.5633 1065.04C99.2246 1064.31 99.8326 1063.77 100.387 1063.4C100.942 1063.04 101.486 1062.86 102.019 1062.86C102.446 1062.86 102.755 1063 102.947 1063.28C103.161 1063.55 103.267 1064.02 103.267 1064.68C103.267 1065.26 103.171 1066.08 102.979 1067.15L101.539 1075.28C101.475 1075.6 101.134 1075.76 100.515 1075.76ZM111.774 1075.79C111.369 1075.79 111.07 1075.68 110.878 1075.47C110.708 1075.23 110.622 1074.85 110.622 1074.32C110.622 1073.87 110.686 1073.31 110.814 1072.65L113.982 1055.69C114.025 1055.52 114.046 1055.29 114.046 1054.99C114.046 1054.45 113.833 1054.19 113.406 1054.19C113.065 1054.19 112.553 1054.35 111.87 1054.67H111.806C111.721 1054.67 111.657 1054.61 111.614 1054.51C111.593 1054.4 111.625 1054.34 111.71 1054.32L115.838 1052.3H115.902C115.988 1052.3 116.062 1052.33 116.126 1052.4C116.19 1052.46 116.212 1052.51 116.19 1052.56L112.478 1072.65C112.414 1072.97 112.382 1073.26 112.382 1073.52C112.382 1073.84 112.436 1074.08 112.542 1074.25C112.649 1074.42 112.798 1074.51 112.99 1074.51C113.46 1074.51 114.164 1074.02 115.102 1073.04C115.145 1072.99 115.188 1072.97 115.23 1072.97C115.294 1072.97 115.348 1073.01 115.39 1073.1C115.433 1073.16 115.422 1073.23 115.358 1073.29C114.633 1074.15 113.982 1074.77 113.406 1075.18C112.852 1075.59 112.308 1075.79 111.774 1075.79ZM119.944 1075.79C119.56 1075.79 119.272 1075.68 119.08 1075.47C118.888 1075.23 118.792 1074.86 118.792 1074.35C118.792 1074.03 118.867 1073.46 119.016 1072.65L120.328 1066C120.392 1065.68 120.424 1065.39 120.424 1065.13C120.424 1064.81 120.36 1064.57 120.232 1064.4C120.125 1064.2 119.976 1064.11 119.784 1064.11C119.528 1064.11 119.197 1064.24 118.792 1064.49C118.408 1064.75 118.003 1065.11 117.576 1065.58C117.555 1065.6 117.523 1065.61 117.48 1065.61C117.416 1065.61 117.352 1065.58 117.288 1065.52C117.245 1065.43 117.256 1065.37 117.32 1065.32C118.067 1064.47 118.739 1063.85 119.336 1063.47C119.933 1063.06 120.499 1062.86 121.032 1062.86C121.416 1062.86 121.693 1062.97 121.864 1063.18C122.056 1063.39 122.152 1063.75 122.152 1064.24C122.152 1064.53 122.077 1065.1 121.928 1065.93L120.648 1072.65C120.584 1072.99 120.552 1073.28 120.552 1073.52C120.552 1074.18 120.755 1074.51 121.16 1074.51C121.672 1074.51 122.397 1074.04 123.336 1073.1C123.379 1073.06 123.421 1073.04 123.464 1073.04C123.528 1073.04 123.581 1073.08 123.624 1073.16C123.667 1073.23 123.656 1073.29 123.592 1073.36C122.867 1074.19 122.216 1074.81 121.64 1075.21C121.064 1075.6 120.499 1075.79 119.944 1075.79ZM121.96 1059.08C121.533 1059.08 121.192 1058.97 120.936 1058.73C120.701 1058.48 120.584 1058.13 120.584 1057.71C120.584 1057.3 120.701 1056.98 120.936 1056.75C121.192 1056.51 121.533 1056.4 121.96 1056.4C122.387 1056.4 122.717 1056.51 122.952 1056.75C123.187 1056.98 123.304 1057.3 123.304 1057.71C123.304 1058.13 123.187 1058.48 122.952 1058.73C122.717 1058.97 122.387 1059.08 121.96 1059.08ZM135.146 1075.79C134.762 1075.79 134.474 1075.68 134.282 1075.47C134.112 1075.23 134.026 1074.86 134.026 1074.35C134.026 1073.92 134.09 1073.36 134.218 1072.65L135.146 1067.56C135.274 1066.88 135.338 1066.31 135.338 1065.84C135.338 1064.6 134.88 1063.98 133.962 1063.98C133.258 1063.98 132.522 1064.43 131.754 1065.32C131.008 1066.22 130.304 1067.52 129.642 1069.23C128.981 1070.93 128.437 1072.95 128.01 1075.28L127.626 1075.24C128.053 1072.77 128.64 1070.59 129.386 1068.72C130.154 1066.82 131.018 1065.35 131.978 1064.3C132.96 1063.25 133.973 1062.73 135.018 1062.73C135.722 1062.73 136.245 1062.92 136.586 1063.31C136.928 1063.69 137.098 1064.29 137.098 1065.1C137.098 1065.48 137.024 1066.1 136.874 1066.96L135.818 1072.65C135.754 1072.97 135.722 1073.25 135.722 1073.48C135.722 1074.17 135.936 1074.51 136.362 1074.51C136.832 1074.51 137.536 1074.02 138.474 1073.04C138.517 1072.99 138.549 1072.97 138.57 1072.97C138.634 1072.97 138.688 1073.01 138.73 1073.1C138.794 1073.16 138.794 1073.23 138.73 1073.29C138.005 1074.15 137.354 1074.77 136.778 1075.18C136.224 1075.59 135.68 1075.79 135.146 1075.79ZM126.986 1075.76C126.688 1075.76 126.485 1075.73 126.378 1075.69C126.293 1075.67 126.25 1075.63 126.25 1075.56L126.378 1074.83C126.506 1074.32 126.624 1073.75 126.73 1073.13L128.042 1066C128.106 1065.68 128.138 1065.39 128.138 1065.13C128.138 1064.45 127.925 1064.11 127.498 1064.11C127.242 1064.11 126.912 1064.24 126.506 1064.49C126.122 1064.75 125.717 1065.11 125.29 1065.58C125.269 1065.6 125.237 1065.61 125.194 1065.61C125.13 1065.61 125.066 1065.58 125.002 1065.52C124.96 1065.43 124.97 1065.37 125.034 1065.32C125.76 1064.49 126.421 1063.87 127.018 1063.47C127.637 1063.06 128.224 1062.86 128.778 1062.86C129.141 1062.86 129.408 1062.98 129.578 1063.21C129.749 1063.43 129.834 1063.78 129.834 1064.27C129.834 1064.82 129.781 1065.38 129.674 1065.93L128.01 1075.28C127.989 1075.43 127.882 1075.54 127.69 1075.63C127.52 1075.71 127.285 1075.76 126.986 1075.76ZM141.221 1075.76C140.731 1075.76 140.485 1075.69 140.485 1075.56L140.613 1074.83C140.741 1074.32 140.859 1073.75 140.965 1073.13L144.229 1055.69C144.272 1055.35 144.293 1055.13 144.293 1055.02C144.293 1054.47 144.059 1054.19 143.589 1054.19C143.248 1054.19 142.736 1054.35 142.053 1054.67H141.989C141.904 1054.67 141.851 1054.63 141.829 1054.54C141.808 1054.43 141.829 1054.36 141.893 1054.32L146.021 1052.3H146.085C146.171 1052.3 146.245 1052.33 146.309 1052.4C146.373 1052.46 146.395 1052.51 146.373 1052.56L143.429 1068.88L142.245 1075.28C142.224 1075.43 142.117 1075.54 141.925 1075.63C141.755 1075.71 141.52 1075.76 141.221 1075.76ZM149.061 1075.79C148.571 1075.79 148.144 1075.64 147.781 1075.34C147.44 1075.04 147.024 1074.48 146.533 1073.64L144.677 1070.41C144.507 1070.09 144.336 1069.88 144.165 1069.77C144.016 1069.64 143.824 1069.58 143.589 1069.58C143.397 1069.58 143.152 1069.61 142.853 1069.68L145.765 1068.72L147.973 1072.56C148.4 1073.28 148.763 1073.77 149.061 1074.03C149.381 1074.28 149.712 1074.41 150.053 1074.41C150.608 1074.41 151.312 1073.97 152.165 1073.1C152.187 1073.08 152.219 1073.07 152.261 1073.07C152.347 1073.07 152.411 1073.11 152.453 1073.2C152.496 1073.26 152.496 1073.31 152.453 1073.36C151.024 1074.98 149.893 1075.79 149.061 1075.79ZM142.853 1069.26C144.987 1068.79 146.512 1068.27 147.429 1067.69C148.368 1067.09 148.933 1066.27 149.125 1065.23C149.168 1065.01 149.189 1064.87 149.189 1064.78C149.189 1064.44 149.104 1064.17 148.933 1063.98C148.763 1063.79 148.528 1063.69 148.229 1063.69C147.141 1063.69 146.149 1064.16 145.253 1065.1C144.379 1066.04 143.771 1067.3 143.429 1068.88L142.565 1067.72C143.355 1066.25 144.389 1065.06 145.669 1064.14C146.949 1063.2 148.272 1062.73 149.637 1062.73C150.277 1062.73 150.725 1062.89 150.981 1063.21C151.259 1063.51 151.397 1063.87 151.397 1064.3C151.397 1065.35 150.608 1066.37 149.029 1067.37C147.472 1068.35 145.413 1069.12 142.853 1069.68V1069.26ZM153.605 1070.16C153.562 1070.18 153.52 1070.1 153.477 1069.93C153.456 1069.74 153.445 1069.55 153.445 1069.36C153.445 1068.95 153.477 1068.74 153.541 1068.72L161.541 1067.24C161.626 1067.22 161.669 1067.47 161.669 1067.98C161.669 1068.43 161.626 1068.65 161.541 1068.65L153.605 1070.16ZM168.187 1075.88C167.462 1075.88 166.768 1075.8 166.107 1075.63C165.446 1075.48 164.752 1075.2 164.027 1074.8C163.856 1074.69 163.792 1074.49 163.835 1074.19L164.283 1069.96C164.283 1069.86 164.336 1069.8 164.443 1069.8C164.571 1069.8 164.635 1069.86 164.635 1069.96C164.678 1071.5 165.051 1072.79 165.755 1073.84C166.48 1074.86 167.558 1075.37 168.987 1075.37C170.032 1075.37 170.95 1075.07 171.739 1074.48C172.55 1073.86 173.062 1072.91 173.275 1071.63C173.339 1071.27 173.371 1070.95 173.371 1070.67C173.371 1069.62 173.062 1068.76 172.443 1068.08C171.846 1067.37 170.971 1066.63 169.819 1065.84C169.03 1065.26 168.4 1064.78 167.931 1064.4C167.483 1063.99 167.099 1063.51 166.779 1062.96C166.459 1062.4 166.299 1061.76 166.299 1061.04C166.299 1060.74 166.331 1060.43 166.395 1060.11C166.608 1059.04 167.035 1058.13 167.675 1057.39C168.336 1056.64 169.126 1056.09 170.043 1055.72C170.96 1055.34 171.91 1055.15 172.891 1055.15C174.022 1055.15 175.174 1055.4 176.347 1055.92C176.624 1056.07 176.752 1056.25 176.731 1056.46L176.315 1060.01C176.315 1060.1 176.251 1060.14 176.123 1060.14C176.016 1060.14 175.952 1060.1 175.931 1060.01C175.846 1058.75 175.536 1057.71 175.003 1056.88C174.47 1056.04 173.595 1055.63 172.379 1055.63C171.462 1055.63 170.694 1055.86 170.075 1056.33C169.478 1056.78 169.03 1057.35 168.731 1058.03C168.454 1058.71 168.315 1059.39 168.315 1060.08C168.315 1060.74 168.464 1061.32 168.763 1061.84C169.083 1062.35 169.467 1062.8 169.915 1063.18C170.363 1063.54 170.992 1064 171.803 1064.56C172.614 1065.11 173.264 1065.6 173.755 1066.03C174.267 1066.43 174.694 1066.93 175.035 1067.53C175.376 1068.13 175.547 1068.8 175.547 1069.55C175.547 1069.93 175.526 1070.23 175.483 1070.44C175.206 1072.02 174.427 1073.32 173.147 1074.35C171.867 1075.37 170.214 1075.88 168.187 1075.88ZM180.024 1075.79C179.619 1075.79 179.32 1075.68 179.128 1075.47C178.958 1075.23 178.872 1074.85 178.872 1074.32C178.872 1073.87 178.936 1073.31 179.064 1072.65L182.232 1055.69C182.275 1055.52 182.296 1055.29 182.296 1054.99C182.296 1054.45 182.083 1054.19 181.656 1054.19C181.315 1054.19 180.803 1054.35 180.12 1054.67H180.056C179.971 1054.67 179.907 1054.61 179.864 1054.51C179.843 1054.4 179.875 1054.34 179.96 1054.32L184.088 1052.3H184.152C184.238 1052.3 184.312 1052.33 184.376 1052.4C184.44 1052.46 184.462 1052.51 184.44 1052.56L180.728 1072.65C180.664 1072.97 180.632 1073.26 180.632 1073.52C180.632 1073.84 180.686 1074.08 180.792 1074.25C180.899 1074.42 181.048 1074.51 181.24 1074.51C181.71 1074.51 182.414 1074.02 183.352 1073.04C183.395 1072.99 183.438 1072.97 183.48 1072.97C183.544 1072.97 183.598 1073.01 183.64 1073.1C183.683 1073.16 183.672 1073.23 183.608 1073.29C182.883 1074.15 182.232 1074.77 181.656 1075.18C181.102 1075.59 180.558 1075.79 180.024 1075.79ZM188.194 1075.79C187.81 1075.79 187.522 1075.68 187.33 1075.47C187.138 1075.23 187.042 1074.86 187.042 1074.35C187.042 1074.03 187.117 1073.46 187.266 1072.65L188.578 1066C188.642 1065.68 188.674 1065.39 188.674 1065.13C188.674 1064.81 188.61 1064.57 188.482 1064.4C188.375 1064.2 188.226 1064.11 188.034 1064.11C187.778 1064.11 187.447 1064.24 187.042 1064.49C186.658 1064.75 186.253 1065.11 185.826 1065.58C185.805 1065.6 185.773 1065.61 185.73 1065.61C185.666 1065.61 185.602 1065.58 185.538 1065.52C185.495 1065.43 185.506 1065.37 185.57 1065.32C186.317 1064.47 186.989 1063.85 187.586 1063.47C188.183 1063.06 188.749 1062.86 189.282 1062.86C189.666 1062.86 189.943 1062.97 190.114 1063.18C190.306 1063.39 190.402 1063.75 190.402 1064.24C190.402 1064.53 190.327 1065.1 190.178 1065.93L188.898 1072.65C188.834 1072.99 188.802 1073.28 188.802 1073.52C188.802 1074.18 189.005 1074.51 189.41 1074.51C189.922 1074.51 190.647 1074.04 191.586 1073.1C191.629 1073.06 191.671 1073.04 191.714 1073.04C191.778 1073.04 191.831 1073.08 191.874 1073.16C191.917 1073.23 191.906 1073.29 191.842 1073.36C191.117 1074.19 190.466 1074.81 189.89 1075.21C189.314 1075.6 188.749 1075.79 188.194 1075.79ZM190.21 1059.08C189.783 1059.08 189.442 1058.97 189.186 1058.73C188.951 1058.48 188.834 1058.13 188.834 1057.71C188.834 1057.3 188.951 1056.98 189.186 1056.75C189.442 1056.51 189.783 1056.4 190.21 1056.4C190.637 1056.4 190.967 1056.51 191.202 1056.75C191.437 1056.98 191.554 1057.3 191.554 1057.71C191.554 1058.13 191.437 1058.48 191.202 1058.73C190.967 1058.97 190.637 1059.08 190.21 1059.08ZM195.972 1075.92C195.204 1075.92 194.575 1075.67 194.084 1075.18C193.594 1074.67 193.348 1073.87 193.348 1072.78C193.348 1072.55 193.391 1072.11 193.476 1071.47C193.754 1069.93 194.33 1068.49 195.204 1067.15C196.1 1065.8 197.156 1064.74 198.372 1063.95C199.61 1063.14 200.836 1062.73 202.052 1062.73C202.714 1062.73 203.279 1062.91 203.748 1063.28C204.239 1063.62 204.516 1064.15 204.58 1064.88L203.236 1067.63C202.212 1070.17 201.071 1072.18 199.812 1073.68C198.575 1075.17 197.295 1075.92 195.972 1075.92ZM196.996 1074.38C197.956 1074.38 198.895 1073.86 199.812 1072.81C200.751 1071.75 201.519 1070.52 202.116 1069.13C202.714 1067.75 203.012 1066.67 203.012 1065.9C203.012 1065.24 202.82 1064.74 202.436 1064.4C202.074 1064.03 201.562 1063.85 200.9 1063.85C199.514 1063.89 198.308 1064.46 197.284 1065.55C196.26 1066.64 195.578 1068.18 195.236 1070.19C195.151 1070.68 195.108 1071.17 195.108 1071.66C195.108 1072.56 195.279 1073.24 195.62 1073.71C195.962 1074.16 196.42 1074.38 196.996 1074.38ZM202.724 1075.79C201.978 1075.79 201.604 1075.32 201.604 1074.38C201.604 1074.04 201.679 1073.46 201.828 1072.65L205.028 1055.69C205.071 1055.39 205.092 1055.19 205.092 1055.08C205.092 1054.49 204.847 1054.19 204.356 1054.19C204.015 1054.19 203.492 1054.35 202.788 1054.67H202.724C202.66 1054.67 202.607 1054.61 202.564 1054.51C202.543 1054.4 202.575 1054.34 202.66 1054.32L206.82 1052.3H206.884C206.948 1052.3 207.012 1052.33 207.076 1052.4C207.14 1052.46 207.162 1052.51 207.14 1052.56L203.428 1072.65C203.364 1072.99 203.332 1073.28 203.332 1073.52C203.332 1074.18 203.546 1074.51 203.972 1074.51C204.399 1074.51 205.103 1074.02 206.084 1073.04C206.127 1072.99 206.159 1072.97 206.18 1072.97C206.244 1072.97 206.298 1073.01 206.34 1073.1C206.404 1073.16 206.404 1073.23 206.34 1073.29C205.572 1074.15 204.911 1074.77 204.356 1075.18C203.802 1075.59 203.258 1075.79 202.724 1075.79ZM211.791 1075.88C210.447 1075.88 209.423 1075.46 208.719 1074.6C208.036 1073.73 207.695 1072.61 207.695 1071.24C207.695 1070.77 207.748 1070.22 207.855 1069.58C208.047 1068.49 208.495 1067.43 209.199 1066.38C209.903 1065.31 210.778 1064.44 211.823 1063.76C212.89 1063.07 213.999 1062.73 215.151 1062.73C215.919 1062.73 216.495 1062.89 216.879 1063.21C217.284 1063.51 217.434 1063.93 217.327 1064.46C217.199 1065.12 216.73 1065.76 215.919 1066.38C215.13 1066.98 214.116 1067.49 212.879 1067.92C211.663 1068.32 210.372 1068.6 209.007 1068.75L209.071 1068.33C210.778 1068.1 212.175 1067.71 213.263 1067.18C214.351 1066.65 214.991 1065.96 215.183 1065.13C215.226 1064.92 215.247 1064.77 215.247 1064.68C215.247 1064.32 215.098 1064.05 214.799 1063.88C214.5 1063.69 214.148 1063.6 213.743 1063.6C212.719 1063.6 211.866 1064.05 211.183 1064.97C210.5 1065.89 210.042 1067.07 209.807 1068.52C209.679 1069.19 209.615 1069.81 209.615 1070.41C209.615 1071.73 209.903 1072.8 210.479 1073.61C211.076 1074.4 211.919 1074.8 213.007 1074.8C214.223 1074.8 215.3 1074.44 216.239 1073.74H216.303C216.367 1073.74 216.42 1073.77 216.463 1073.84C216.527 1073.9 216.527 1073.96 216.463 1074.03C214.97 1075.27 213.412 1075.88 211.791 1075.88ZM225.684 1075.5C225.641 1075.5 225.62 1075.44 225.62 1075.31C225.62 1075.18 225.641 1075.12 225.684 1075.12C226.366 1075.12 226.878 1075.06 227.22 1074.96C227.561 1074.85 227.817 1074.65 227.988 1074.35C228.158 1074.03 228.297 1073.55 228.404 1072.91L231.028 1058.09C231.092 1057.67 231.124 1057.33 231.124 1057.1C231.124 1056.61 230.974 1056.29 230.676 1056.14C230.398 1055.97 229.865 1055.88 229.076 1055.88C229.033 1055.88 229.012 1055.82 229.012 1055.69C229.012 1055.56 229.033 1055.5 229.076 1055.5L230.42 1055.53C231.188 1055.57 231.806 1055.6 232.276 1055.6C232.766 1055.6 233.417 1055.57 234.228 1055.53L235.572 1055.5C235.614 1055.5 235.636 1055.56 235.636 1055.69C235.636 1055.82 235.614 1055.88 235.572 1055.88C234.889 1055.88 234.377 1055.95 234.036 1056.08C233.694 1056.18 233.438 1056.4 233.268 1056.72C233.118 1057.01 232.98 1057.48 232.852 1058.12L230.26 1072.78C230.196 1073.16 230.164 1073.48 230.164 1073.74C230.164 1074.19 230.302 1074.5 230.58 1074.67C230.857 1074.82 231.358 1074.89 232.084 1074.89H235.316C236.489 1074.89 237.46 1074.53 238.228 1073.8C239.017 1073.08 239.668 1072.02 240.18 1070.64C240.18 1070.59 240.222 1070.57 240.308 1070.57C240.372 1070.57 240.436 1070.59 240.5 1070.64C240.564 1070.66 240.585 1070.68 240.564 1070.7C240.094 1072.26 239.753 1073.7 239.54 1075.02C239.497 1075.19 239.433 1075.32 239.348 1075.4C239.284 1075.47 239.177 1075.5 239.028 1075.5H225.684ZM246.103 1075.95C244.844 1075.95 243.852 1075.5 243.127 1074.6C242.423 1073.71 242.071 1072.53 242.071 1071.08C242.071 1070.42 242.124 1069.84 242.231 1069.32C242.465 1068.09 242.913 1066.97 243.575 1065.96C244.236 1064.96 245.036 1064.17 245.975 1063.6C246.913 1063.02 247.905 1062.73 248.951 1062.73C250.273 1062.73 251.297 1063.18 252.023 1064.08C252.748 1064.95 253.111 1066.09 253.111 1067.5C253.111 1068.1 253.047 1068.71 252.919 1069.32C252.663 1070.63 252.183 1071.79 251.479 1072.81C250.775 1073.81 249.943 1074.59 248.983 1075.15C248.044 1075.68 247.084 1075.95 246.103 1075.95ZM247.223 1075.15C248.119 1075.15 248.929 1074.75 249.655 1073.96C250.38 1073.17 250.871 1072.1 251.127 1070.73C251.233 1070.22 251.287 1069.6 251.287 1068.88C251.287 1067.4 250.999 1066.15 250.423 1065.1C249.868 1064.03 249.068 1063.5 248.023 1063.5C247.105 1063.5 246.273 1063.91 245.527 1064.72C244.801 1065.53 244.3 1066.6 244.023 1067.95C243.895 1068.55 243.831 1069.19 243.831 1069.87C243.831 1071.32 244.129 1072.57 244.727 1073.61C245.324 1074.64 246.156 1075.15 247.223 1075.15ZM258.853 1075.95C257.594 1075.95 256.602 1075.5 255.877 1074.6C255.173 1073.71 254.821 1072.53 254.821 1071.08C254.821 1070.42 254.874 1069.84 254.981 1069.32C255.215 1068.09 255.663 1066.97 256.325 1065.96C256.986 1064.96 257.786 1064.17 258.725 1063.6C259.663 1063.02 260.655 1062.73 261.701 1062.73C263.023 1062.73 264.047 1063.18 264.773 1064.08C265.498 1064.95 265.861 1066.09 265.861 1067.5C265.861 1068.1 265.797 1068.71 265.669 1069.32C265.413 1070.63 264.933 1071.79 264.229 1072.81C263.525 1073.81 262.693 1074.59 261.733 1075.15C260.794 1075.68 259.834 1075.95 258.853 1075.95ZM259.973 1075.15C260.869 1075.15 261.679 1074.75 262.405 1073.96C263.13 1073.17 263.621 1072.1 263.877 1070.73C263.983 1070.22 264.037 1069.6 264.037 1068.88C264.037 1067.4 263.749 1066.15 263.173 1065.1C262.618 1064.03 261.818 1063.5 260.773 1063.5C259.855 1063.5 259.023 1063.91 258.277 1064.72C257.551 1065.53 257.05 1066.6 256.773 1067.95C256.645 1068.55 256.581 1069.19 256.581 1069.87C256.581 1071.32 256.879 1072.57 257.477 1073.61C258.074 1074.64 258.906 1075.15 259.973 1075.15ZM268.659 1075.76C268.168 1075.76 267.923 1075.69 267.923 1075.56L268.051 1074.83C268.179 1074.32 268.296 1073.75 268.403 1073.13L271.667 1055.69C271.709 1055.35 271.731 1055.13 271.731 1055.02C271.731 1054.47 271.496 1054.19 271.027 1054.19C270.685 1054.19 270.173 1054.35 269.491 1054.67H269.427C269.341 1054.67 269.288 1054.63 269.267 1054.54C269.245 1054.43 269.267 1054.36 269.331 1054.32L273.459 1052.3H273.523C273.608 1052.3 273.683 1052.33 273.747 1052.4C273.811 1052.46 273.832 1052.51 273.811 1052.56L270.867 1068.88L269.683 1075.28C269.661 1075.43 269.555 1075.54 269.363 1075.63C269.192 1075.71 268.957 1075.76 268.659 1075.76ZM276.499 1075.79C276.008 1075.79 275.581 1075.64 275.219 1075.34C274.877 1075.04 274.461 1074.48 273.971 1073.64L272.115 1070.41C271.944 1070.09 271.773 1069.88 271.603 1069.77C271.453 1069.64 271.261 1069.58 271.027 1069.58C270.835 1069.58 270.589 1069.61 270.291 1069.68L273.203 1068.72L275.411 1072.56C275.837 1073.28 276.2 1073.77 276.499 1074.03C276.819 1074.28 277.149 1074.41 277.491 1074.41C278.045 1074.41 278.749 1073.97 279.603 1073.1C279.624 1073.08 279.656 1073.07 279.699 1073.07C279.784 1073.07 279.848 1073.11 279.891 1073.2C279.933 1073.26 279.933 1073.31 279.891 1073.36C278.461 1074.98 277.331 1075.79 276.499 1075.79ZM270.291 1069.26C272.424 1068.79 273.949 1068.27 274.867 1067.69C275.805 1067.09 276.371 1066.27 276.563 1065.23C276.605 1065.01 276.627 1064.87 276.627 1064.78C276.627 1064.44 276.541 1064.17 276.371 1063.98C276.2 1063.79 275.965 1063.69 275.667 1063.69C274.579 1063.69 273.587 1064.16 272.691 1065.1C271.816 1066.04 271.208 1067.3 270.867 1068.88L270.003 1067.72C270.792 1066.25 271.827 1065.06 273.107 1064.14C274.387 1063.2 275.709 1062.73 277.075 1062.73C277.715 1062.73 278.163 1062.89 278.419 1063.21C278.696 1063.51 278.835 1063.87 278.835 1064.3C278.835 1065.35 278.045 1066.37 276.467 1067.37C274.909 1068.35 272.851 1069.12 270.291 1069.68V1069.26ZM284.243 1075.92C282.835 1075.92 282.131 1075.13 282.131 1073.55C282.131 1072.97 282.205 1072.35 282.355 1071.69L283.507 1066C283.571 1065.63 283.603 1065.35 283.603 1065.13C283.603 1064.47 283.4 1064.14 282.995 1064.14C282.568 1064.14 281.864 1064.63 280.883 1065.61C280.84 1065.65 280.797 1065.68 280.755 1065.68C280.691 1065.68 280.637 1065.64 280.595 1065.58C280.552 1065.49 280.563 1065.42 280.627 1065.36C281.373 1064.5 282.024 1063.87 282.579 1063.47C283.155 1063.06 283.709 1062.86 284.243 1062.86C284.989 1062.86 285.363 1063.35 285.363 1064.33C285.363 1064.65 285.288 1065.21 285.139 1066L284.115 1071.08C283.965 1071.75 283.891 1072.34 283.891 1072.88C283.891 1074.07 284.349 1074.67 285.267 1074.67C285.971 1074.67 286.696 1074.22 287.443 1073.32C288.211 1072.43 288.925 1071.13 289.587 1069.42C290.269 1067.71 290.813 1065.7 291.219 1063.37L291.635 1063.4C291.208 1065.88 290.611 1068.07 289.843 1069.96C289.096 1071.84 288.232 1073.3 287.251 1074.35C286.291 1075.39 285.288 1075.92 284.243 1075.92ZM290.483 1075.79C290.12 1075.79 289.853 1075.68 289.683 1075.47C289.512 1075.23 289.427 1074.87 289.427 1074.38C289.427 1073.83 289.48 1073.27 289.587 1072.72L291.219 1063.37C291.283 1063.05 291.624 1062.89 292.243 1062.89C292.755 1062.89 293.011 1062.96 293.011 1063.08L292.883 1063.82C292.755 1064.33 292.637 1064.9 292.531 1065.52L291.219 1072.65C291.155 1072.97 291.123 1073.26 291.123 1073.52C291.123 1074.2 291.325 1074.54 291.731 1074.54C292.285 1074.54 293.032 1074.05 293.971 1073.07C293.992 1073.05 294.024 1073.04 294.067 1073.04C294.131 1073.04 294.184 1073.08 294.227 1073.16C294.269 1073.23 294.269 1073.28 294.227 1073.32C293.48 1074.18 292.808 1074.81 292.211 1075.21C291.613 1075.6 291.037 1075.79 290.483 1075.79ZM293.07 1084.3C292.984 1084.32 292.931 1084.27 292.91 1084.14C292.888 1084.01 292.92 1083.94 293.006 1083.92C293.475 1083.83 293.827 1083.71 294.062 1083.56C294.296 1083.44 294.478 1083.21 294.606 1082.89C294.712 1082.59 294.83 1082.1 294.958 1081.42L298.222 1063.15C298.222 1063.11 298.371 1062.96 298.67 1062.7C298.968 1062.42 299.235 1062.13 299.47 1061.84C299.704 1061.54 299.854 1061.2 299.918 1060.81C299.939 1060.73 300.003 1060.69 300.11 1060.72C300.238 1060.74 300.291 1060.79 300.27 1060.88L296.654 1081.2C296.59 1081.56 296.558 1081.85 296.558 1082.06C296.558 1082.47 296.654 1082.75 296.846 1082.92C297.038 1083.09 297.347 1083.18 297.774 1083.18C297.88 1083.18 298.126 1083.16 298.51 1083.12H298.542C298.606 1083.12 298.648 1083.17 298.67 1083.28C298.691 1083.38 298.659 1083.45 298.574 1083.47L293.07 1084.3ZM299.534 1075.53C298.83 1075.53 298.296 1075.51 297.934 1075.47C297.592 1075.43 297.187 1075.35 296.718 1075.24L297.038 1073.58C297.55 1073.9 298.062 1074.16 298.574 1074.35C299.107 1074.54 299.726 1074.64 300.43 1074.64C301.774 1074.64 302.851 1074.07 303.662 1072.94C304.472 1071.81 304.995 1070.32 305.23 1068.46C305.294 1068.01 305.326 1067.57 305.326 1067.15C305.326 1065.1 304.44 1064.08 302.67 1064.08C301.752 1064.08 300.814 1064.33 299.854 1064.84C298.894 1065.36 297.688 1066.18 296.238 1067.31L296.174 1067.34C296.11 1067.34 296.046 1067.3 295.982 1067.21C295.939 1067.11 295.95 1067.04 296.014 1067.02C299.043 1064.29 301.71 1062.92 304.014 1062.92C305.038 1062.92 305.816 1063.21 306.35 1063.79C306.883 1064.34 307.15 1065.16 307.15 1066.25C307.15 1066.59 307.118 1066.98 307.054 1067.4C306.862 1068.83 306.382 1070.18 305.614 1071.44C304.846 1072.67 303.918 1073.67 302.83 1074.41C301.742 1075.16 300.643 1075.53 299.534 1075.53Z" fill="black"/>
<path d="M335.411 1079.12C335.411 1079.17 335.358 1079.19 335.251 1079.19C335.102 1079.19 334.931 1079.15 334.739 1079.06C334.547 1079 334.462 1078.93 334.483 1078.87L340.435 1061.04C340.435 1061 340.478 1060.98 340.563 1060.98C340.691 1060.98 340.862 1061.03 341.075 1061.14C341.288 1061.23 341.384 1061.3 341.363 1061.36L335.411 1079.12ZM334.195 1074.07C334.174 1074.07 334.142 1074 334.099 1073.88C334.078 1073.73 334.067 1073.58 334.067 1073.43C334.067 1073.28 334.078 1073.14 334.099 1073.01C334.142 1072.86 334.174 1072.79 334.195 1072.79H344.339C344.403 1072.79 344.435 1072.95 344.435 1073.27C344.435 1073.46 344.414 1073.64 344.371 1073.81C344.35 1073.98 344.328 1074.07 344.307 1074.07H334.195ZM340.243 1079.12C340.243 1079.17 340.19 1079.19 340.083 1079.19C339.934 1079.19 339.763 1079.15 339.571 1079.06C339.379 1079 339.294 1078.93 339.315 1078.87L345.267 1061.04C345.267 1061 345.31 1060.98 345.395 1060.98C345.523 1060.98 345.694 1061.03 345.907 1061.14C346.12 1061.23 346.216 1061.3 346.195 1061.36L340.243 1079.12ZM336.339 1067.7C336.318 1067.7 336.286 1067.64 336.243 1067.51C336.222 1067.36 336.211 1067.21 336.211 1067.06C336.211 1066.91 336.222 1066.77 336.243 1066.64C336.286 1066.52 336.318 1066.45 336.339 1066.45H346.483C346.526 1066.45 346.547 1066.61 346.547 1066.93C346.547 1067.44 346.504 1067.7 346.419 1067.7H336.339Z" fill="black"/>
<path d="M106.243 1130.79C105.838 1130.79 105.539 1130.68 105.347 1130.47C105.176 1130.23 105.091 1129.85 105.091 1129.32C105.091 1128.87 105.155 1128.31 105.283 1127.65L108.451 1110.69C108.494 1110.52 108.515 1110.29 108.515 1109.99C108.515 1109.45 108.302 1109.19 107.875 1109.19C107.534 1109.19 107.022 1109.35 106.339 1109.67H106.275C106.19 1109.67 106.126 1109.61 106.083 1109.51C106.062 1109.4 106.094 1109.34 106.179 1109.32L110.307 1107.3H110.371C110.456 1107.3 110.531 1107.33 110.595 1107.4C110.659 1107.46 110.68 1107.51 110.659 1107.56L106.947 1127.65C106.883 1127.97 106.851 1128.26 106.851 1128.52C106.851 1128.84 106.904 1129.08 107.011 1129.25C107.118 1129.42 107.267 1129.51 107.459 1129.51C107.928 1129.51 108.632 1129.02 109.571 1128.04C109.614 1127.99 109.656 1127.97 109.699 1127.97C109.763 1127.97 109.816 1128.01 109.859 1128.1C109.902 1128.16 109.891 1128.23 109.827 1128.29C109.102 1129.15 108.451 1129.77 107.875 1130.18C107.32 1130.59 106.776 1130.79 106.243 1130.79ZM114.413 1130.79C114.029 1130.79 113.741 1130.68 113.549 1130.47C113.357 1130.23 113.261 1129.86 113.261 1129.35C113.261 1129.03 113.335 1128.46 113.485 1127.65L114.797 1121C114.861 1120.68 114.893 1120.39 114.893 1120.13C114.893 1119.81 114.829 1119.57 114.701 1119.4C114.594 1119.2 114.445 1119.11 114.253 1119.11C113.997 1119.11 113.666 1119.24 113.261 1119.49C112.877 1119.75 112.471 1120.11 112.045 1120.58C112.023 1120.6 111.991 1120.61 111.949 1120.61C111.885 1120.61 111.821 1120.58 111.757 1120.52C111.714 1120.43 111.725 1120.37 111.789 1120.32C112.535 1119.47 113.207 1118.85 113.805 1118.47C114.402 1118.06 114.967 1117.86 115.501 1117.86C115.885 1117.86 116.162 1117.97 116.333 1118.18C116.525 1118.39 116.621 1118.75 116.621 1119.24C116.621 1119.53 116.546 1120.1 116.397 1120.93L115.117 1127.65C115.053 1127.99 115.021 1128.28 115.021 1128.52C115.021 1129.18 115.223 1129.51 115.629 1129.51C116.141 1129.51 116.866 1129.04 117.805 1128.1C117.847 1128.06 117.89 1128.04 117.933 1128.04C117.997 1128.04 118.05 1128.08 118.093 1128.16C118.135 1128.23 118.125 1128.29 118.061 1128.36C117.335 1129.19 116.685 1129.81 116.109 1130.21C115.533 1130.6 114.967 1130.79 114.413 1130.79ZM116.429 1114.08C116.002 1114.08 115.661 1113.97 115.405 1113.73C115.17 1113.48 115.053 1113.13 115.053 1112.71C115.053 1112.3 115.17 1111.98 115.405 1111.75C115.661 1111.51 116.002 1111.4 116.429 1111.4C116.855 1111.4 117.186 1111.51 117.421 1111.75C117.655 1111.98 117.773 1112.3 117.773 1112.71C117.773 1113.13 117.655 1113.48 117.421 1113.73C117.186 1113.97 116.855 1114.08 116.429 1114.08ZM129.615 1130.79C129.231 1130.79 128.943 1130.68 128.751 1130.47C128.58 1130.23 128.495 1129.86 128.495 1129.35C128.495 1128.92 128.559 1128.36 128.687 1127.65L129.615 1122.56C129.743 1121.88 129.807 1121.31 129.807 1120.84C129.807 1119.6 129.348 1118.98 128.431 1118.98C127.727 1118.98 126.991 1119.43 126.223 1120.32C125.476 1121.22 124.772 1122.52 124.111 1124.23C123.45 1125.93 122.906 1127.95 122.479 1130.28L122.095 1130.24C122.522 1127.77 123.108 1125.59 123.855 1123.72C124.623 1121.82 125.487 1120.35 126.447 1119.3C127.428 1118.25 128.442 1117.73 129.487 1117.73C130.191 1117.73 130.714 1117.92 131.055 1118.31C131.396 1118.69 131.567 1119.29 131.567 1120.1C131.567 1120.48 131.492 1121.1 131.343 1121.96L130.287 1127.65C130.223 1127.97 130.191 1128.25 130.191 1128.48C130.191 1129.17 130.404 1129.51 130.831 1129.51C131.3 1129.51 132.004 1129.02 132.943 1128.04C132.986 1127.99 133.018 1127.97 133.039 1127.97C133.103 1127.97 133.156 1128.01 133.199 1128.1C133.263 1128.16 133.263 1128.23 133.199 1128.29C132.474 1129.15 131.823 1129.77 131.247 1130.18C130.692 1130.59 130.148 1130.79 129.615 1130.79ZM121.455 1130.76C121.156 1130.76 120.954 1130.73 120.847 1130.69C120.762 1130.67 120.719 1130.63 120.719 1130.56L120.847 1129.83C120.975 1129.32 121.092 1128.75 121.199 1128.13L122.511 1121C122.575 1120.68 122.607 1120.39 122.607 1120.13C122.607 1119.45 122.394 1119.11 121.967 1119.11C121.711 1119.11 121.38 1119.24 120.975 1119.49C120.591 1119.75 120.186 1120.11 119.759 1120.58C119.738 1120.6 119.706 1120.61 119.663 1120.61C119.599 1120.61 119.535 1120.58 119.471 1120.52C119.428 1120.43 119.439 1120.37 119.503 1120.32C120.228 1119.49 120.89 1118.87 121.487 1118.47C122.106 1118.06 122.692 1117.86 123.247 1117.86C123.61 1117.86 123.876 1117.98 124.047 1118.21C124.218 1118.43 124.303 1118.78 124.303 1119.27C124.303 1119.82 124.25 1120.38 124.143 1120.93L122.479 1130.28C122.458 1130.43 122.351 1130.54 122.159 1130.63C121.988 1130.71 121.754 1130.76 121.455 1130.76ZM135.69 1130.76C135.199 1130.76 134.954 1130.69 134.954 1130.56L135.082 1129.83C135.21 1129.32 135.327 1128.75 135.434 1128.13L138.698 1110.69C138.741 1110.35 138.762 1110.13 138.762 1110.02C138.762 1109.47 138.527 1109.19 138.058 1109.19C137.717 1109.19 137.205 1109.35 136.522 1109.67H136.458C136.373 1109.67 136.319 1109.63 136.298 1109.54C136.277 1109.43 136.298 1109.36 136.362 1109.32L140.49 1107.3H140.554C140.639 1107.3 140.714 1107.33 140.778 1107.4C140.842 1107.46 140.863 1107.51 140.842 1107.56L137.898 1123.88L136.714 1130.28C136.693 1130.43 136.586 1130.54 136.394 1130.63C136.223 1130.71 135.989 1130.76 135.69 1130.76ZM143.53 1130.79C143.039 1130.79 142.613 1130.64 142.25 1130.34C141.909 1130.04 141.493 1129.48 141.002 1128.64L139.146 1125.41C138.975 1125.09 138.805 1124.88 138.634 1124.77C138.485 1124.64 138.293 1124.58 138.058 1124.58C137.866 1124.58 137.621 1124.61 137.322 1124.68L140.234 1123.72L142.442 1127.56C142.869 1128.28 143.231 1128.77 143.53 1129.03C143.85 1129.28 144.181 1129.41 144.522 1129.41C145.077 1129.41 145.781 1128.97 146.634 1128.1C146.655 1128.08 146.687 1128.07 146.73 1128.07C146.815 1128.07 146.879 1128.11 146.922 1128.2C146.965 1128.26 146.965 1128.31 146.922 1128.36C145.493 1129.98 144.362 1130.79 143.53 1130.79ZM137.322 1124.26C139.455 1123.79 140.981 1123.27 141.898 1122.69C142.837 1122.09 143.402 1121.27 143.594 1120.23C143.637 1120.01 143.658 1119.87 143.658 1119.78C143.658 1119.44 143.573 1119.17 143.402 1118.98C143.231 1118.79 142.997 1118.69 142.698 1118.69C141.61 1118.69 140.618 1119.16 139.722 1120.1C138.847 1121.04 138.239 1122.3 137.898 1123.88L137.034 1122.72C137.823 1121.25 138.858 1120.06 140.138 1119.14C141.418 1118.2 142.741 1117.73 144.106 1117.73C144.746 1117.73 145.194 1117.89 145.45 1118.21C145.727 1118.51 145.866 1118.87 145.866 1119.3C145.866 1120.35 145.077 1121.37 143.498 1122.37C141.941 1123.35 139.882 1124.12 137.322 1124.68V1124.26ZM156.63 1133.12C156.63 1133.17 156.576 1133.19 156.47 1133.19C156.32 1133.19 156.15 1133.15 155.958 1133.06C155.766 1133 155.68 1132.93 155.702 1132.87L161.654 1115.04C161.654 1115 161.696 1114.98 161.782 1114.98C161.91 1114.98 162.08 1115.03 162.294 1115.14C162.507 1115.23 162.603 1115.3 162.582 1115.36L156.63 1133.12ZM155.414 1128.07C155.392 1128.07 155.36 1128 155.318 1127.88C155.296 1127.73 155.286 1127.58 155.286 1127.43C155.286 1127.28 155.296 1127.14 155.318 1127.01C155.36 1126.86 155.392 1126.79 155.414 1126.79H165.558C165.622 1126.79 165.654 1126.95 165.654 1127.27C165.654 1127.46 165.632 1127.64 165.59 1127.81C165.568 1127.98 165.547 1128.07 165.526 1128.07H155.414ZM161.462 1133.12C161.462 1133.17 161.408 1133.19 161.302 1133.19C161.152 1133.19 160.982 1133.15 160.79 1133.06C160.598 1133 160.512 1132.93 160.534 1132.87L166.486 1115.04C166.486 1115 166.528 1114.98 166.614 1114.98C166.742 1114.98 166.912 1115.03 167.126 1115.14C167.339 1115.23 167.435 1115.3 167.414 1115.36L161.462 1133.12ZM157.558 1121.7C157.536 1121.7 157.504 1121.64 157.462 1121.51C157.44 1121.36 157.43 1121.21 157.43 1121.06C157.43 1120.91 157.44 1120.77 157.462 1120.64C157.504 1120.52 157.536 1120.45 157.558 1120.45H167.702C167.744 1120.45 167.766 1120.61 167.766 1120.93C167.766 1121.44 167.723 1121.7 167.638 1121.7H157.558Z" fill="black"/>
<path d="M329.203 1130.88C328.584 1130.88 328.072 1130.72 327.667 1130.4C327.262 1130.08 327.059 1129.57 327.059 1128.87C327.059 1128.74 327.08 1128.51 327.123 1128.16L328.499 1120.71C328.584 1120.3 328.627 1119.96 328.627 1119.68C328.627 1119.39 328.542 1119.19 328.371 1119.11C328.2 1119 327.88 1118.95 327.411 1118.95C327.347 1118.95 327.315 1118.89 327.315 1118.79C327.315 1118.75 327.326 1118.7 327.347 1118.66C327.39 1118.6 327.422 1118.56 327.443 1118.56C328.168 1118.56 328.798 1118.33 329.331 1117.86C329.864 1117.39 330.227 1116.8 330.419 1116.1C330.462 1116.04 330.558 1116 330.707 1116C330.92 1116 331.006 1116.04 330.963 1116.1L328.979 1127.17C328.915 1127.51 328.883 1127.83 328.883 1128.13C328.883 1129.18 329.406 1129.7 330.451 1129.7C331.006 1129.7 331.518 1129.57 331.987 1129.32C332.478 1129.06 332.99 1128.71 333.523 1128.26H333.555C333.619 1128.26 333.683 1128.29 333.747 1128.36C333.832 1128.42 333.843 1128.47 333.779 1128.52C332.819 1129.35 331.976 1129.96 331.251 1130.34C330.547 1130.7 329.864 1130.88 329.203 1130.88ZM333.811 1119.56C333.704 1119.56 333.224 1119.5 332.371 1119.4C331.539 1119.29 330.739 1119.24 329.971 1119.24L330.035 1118.47C330.718 1118.47 331.88 1118.41 333.523 1118.31L334.611 1118.24C334.76 1118.24 334.835 1118.32 334.835 1118.47C334.835 1118.64 334.718 1118.86 334.483 1119.14C334.248 1119.42 334.024 1119.56 333.811 1119.56ZM339.697 1130.95C338.438 1130.95 337.446 1130.5 336.721 1129.6C336.017 1128.71 335.665 1127.53 335.665 1126.08C335.665 1125.42 335.718 1124.84 335.825 1124.32C336.059 1123.09 336.507 1121.97 337.169 1120.96C337.83 1119.96 338.63 1119.17 339.569 1118.6C340.507 1118.02 341.499 1117.73 342.545 1117.73C343.867 1117.73 344.891 1118.18 345.617 1119.08C346.342 1119.95 346.705 1121.09 346.705 1122.5C346.705 1123.1 346.641 1123.71 346.513 1124.32C346.257 1125.63 345.777 1126.79 345.073 1127.81C344.369 1128.81 343.537 1129.59 342.577 1130.15C341.638 1130.68 340.678 1130.95 339.697 1130.95ZM340.817 1130.15C341.713 1130.15 342.523 1129.75 343.249 1128.96C343.974 1128.17 344.465 1127.1 344.721 1125.73C344.827 1125.22 344.881 1124.6 344.881 1123.88C344.881 1122.4 344.593 1121.15 344.017 1120.1C343.462 1119.03 342.662 1118.5 341.617 1118.5C340.699 1118.5 339.867 1118.91 339.121 1119.72C338.395 1120.53 337.894 1121.6 337.617 1122.95C337.489 1123.55 337.425 1124.19 337.425 1124.87C337.425 1126.32 337.723 1127.57 338.321 1128.61C338.918 1129.64 339.75 1130.15 340.817 1130.15ZM357.099 1133.12C357.099 1133.17 357.045 1133.19 356.939 1133.19C356.789 1133.19 356.619 1133.15 356.427 1133.06C356.235 1133 356.149 1132.93 356.171 1132.87L362.123 1115.04C362.123 1115 362.165 1114.98 362.251 1114.98C362.379 1114.98 362.549 1115.03 362.763 1115.14C362.976 1115.23 363.072 1115.3 363.051 1115.36L357.099 1133.12ZM355.883 1128.07C355.861 1128.07 355.829 1128 355.787 1127.88C355.765 1127.73 355.755 1127.58 355.755 1127.43C355.755 1127.28 355.765 1127.14 355.787 1127.01C355.829 1126.86 355.861 1126.79 355.883 1126.79H366.027C366.091 1126.79 366.123 1126.95 366.123 1127.27C366.123 1127.46 366.101 1127.64 366.059 1127.81C366.037 1127.98 366.016 1128.07 365.995 1128.07H355.883ZM361.931 1133.12C361.931 1133.17 361.877 1133.19 361.771 1133.19C361.621 1133.19 361.451 1133.15 361.259 1133.06C361.067 1133 360.981 1132.93 361.003 1132.87L366.955 1115.04C366.955 1115 366.997 1114.98 367.083 1114.98C367.211 1114.98 367.381 1115.03 367.595 1115.14C367.808 1115.23 367.904 1115.3 367.883 1115.36L361.931 1133.12ZM358.027 1121.7C358.005 1121.7 357.973 1121.64 357.931 1121.51C357.909 1121.36 357.899 1121.21 357.899 1121.06C357.899 1120.91 357.909 1120.77 357.931 1120.64C357.973 1120.52 358.005 1120.45 358.027 1120.45H368.171C368.213 1120.45 368.235 1120.61 368.235 1120.93C368.235 1121.44 368.192 1121.7 368.107 1121.7H358.027Z" fill="black"/>
<path d="M60.8035 1016.5C27.4328 1016.5 0.406668 1043.6 0.499772 1076.97L2.98764 1968.68C3.08606 2003.95 31.7109 2032.5 66.9874 2032.5H416.331C451.677 2032.5 480.331 2003.85 480.331 1968.5L480.331 1076.97C480.331 1043.57 453.257 1016.5 419.859 1016.5" stroke="black"/>
<path d="M60.8035 1016.5C27.4328 1016.5 0.406668 989.398 0.499772 956.028L2.98764 64.3214C3.08606 29.0451 31.7109 0.5 66.9874 0.5L416.331 0.5C451.677 0.5 480.331 29.1538 480.331 64.5L480.331 956.028C480.331 989.426 453.257 1016.5 419.859 1016.5" stroke="black"/>
<g clip-path="url(#clip0_615_254)">
<rect x="110.331" y="1142.5" width="30" height="29" stroke="black" stroke-dasharray="1 3"/>
<rect x="110.331" y="1171.5" width="30" height="29" stroke="black" stroke-dasharray="1 3"/>
<path d="M93.3311 1156.5V1139.5H110.331" stroke="black" stroke-width="0.480769"/>
<path d="M157.331 1186.5V1203.5H140.331" stroke="black" stroke-width="0.480769"/>
</g>
<g clip-path="url(#clip1_615_254)">
<rect x="110.331" y="1208.5" width="30" height="29" stroke="black" stroke-dasharray="1 3"/>
<rect x="110.331" y="1237.5" width="30" height="29" stroke="black" stroke-dasharray="1 3"/>
<path d="M93.3311 1222.5V1205.5H110.331" stroke="black" stroke-width="0.480769"/>
<path d="M157.331 1252.5V1269.5H140.331" stroke="black" stroke-width="0.480769"/>
</g>
<g clip-path="url(#clip2_615_254)">
<rect x="110.331" y="1274.5" width="30" height="29" stroke="black" stroke-dasharray="1 3"/>
<rect x="110.331" y="1303.5" width="30" height="29" stroke="black" stroke-dasharray="1 3"/>
<path d="M93.3311 1288.5V1271.5H110.331" stroke="black" stroke-width="0.480769"/>
<path d="M157.331 1318.5V1335.5H140.331" stroke="black" stroke-width="0.480769"/>
</g>
<g clip-path="url(#clip3_615_254)">
<rect x="110.331" y="1340.5" width="30" height="29" stroke="black" stroke-dasharray="1 3"/>
<rect x="110.331" y="1369.5" width="30" height="29" stroke="black" stroke-dasharray="1 3"/>
<path d="M93.3311 1354.5V1337.5H110.331" stroke="black" stroke-width="0.480769"/>
<path d="M157.331 1384.5V1401.5H140.331" stroke="black" stroke-width="0.480769"/>
</g>
<g clip-path="url(#clip4_615_254)">
<rect x="110.331" y="1406.5" width="30" height="29" stroke="black" stroke-dasharray="1 3"/>
<rect x="110.331" y="1435.5" width="30" height="29" stroke="black" stroke-dasharray="1 3"/>
<path d="M93.3311 1420.5V1403.5H110.331" stroke="black" stroke-width="0.480769"/>
<path d="M157.331 1450.5V1467.5H140.331" stroke="black" stroke-width="0.480769"/>
</g>
<g clip-path="url(#clip5_615_254)">
<rect x="310.331" y="1142.5" width="30" height="29" stroke="black" stroke-dasharray="1 3"/>
<rect x="348.331" y="1142.5" width="30" height="29" stroke="black" stroke-dasharray="1 3"/>
<rect x="310.331" y="1171.5" width="30" height="29" stroke="black" stroke-dasharray="1 3"/>
<rect x="348.331" y="1171.5" width="30" height="29" stroke="black" stroke-dasharray="1 3"/>
<path d="M280.331 1156.5V1139.5H297.331" stroke="black" stroke-width="0.480769"/>
<path d="M408.331 1186.5V1203.5H391.331" stroke="black" stroke-width="0.480769"/>
</g>
<g clip-path="url(#clip6_615_254)">
<rect x="310.331" y="1208.5" width="30" height="29" stroke="black" stroke-dasharray="1 3"/>
<rect x="348.331" y="1208.5" width="30" height="29" stroke="black" stroke-dasharray="1 3"/>
<rect x="310.331" y="1237.5" width="30" height="29" stroke="black" stroke-dasharray="1 3"/>
<rect x="348.331" y="1237.5" width="30" height="29" stroke="black" stroke-dasharray="1 3"/>
<path d="M280.331 1222.5V1205.5H297.331" stroke="black" stroke-width="0.480769"/>
<path d="M408.331 1252.5V1269.5H391.331" stroke="black" stroke-width="0.480769"/>
</g>
<g clip-path="url(#clip7_615_254)">
<rect x="310.331" y="1274.5" width="30" height="29" stroke="black" stroke-dasharray="1 3"/>
<rect x="348.331" y="1274.5" width="30" height="29" stroke="black" stroke-dasharray="1 3"/>
<rect x="310.331" y="1303.5" width="30" height="29" stroke="black" stroke-dasharray="1 3"/>
<rect x="348.331" y="1303.5" width="30" height="29" stroke="black" stroke-dasharray="1 3"/>
<path d="M280.331 1288.5V1271.5H297.331" stroke="black" stroke-width="0.480769"/>
<path d="M408.331 1318.5V1335.5H391.331" stroke="black" stroke-width="0.480769"/>
</g>
<g clip-path="url(#clip8_615_254)">
<rect x="310.331" y="1340.5" width="30" height="29" stroke="black" stroke-dasharray="1 3"/>
<rect x="348.331" y="1340.5" width="30" height="29" stroke="black" stroke-dasharray="1 3"/>
<rect x="310.331" y="1369.5" width="30" height="29" stroke="black" stroke-dasharray="1 3"/>
<rect x="348.331" y="1369.5" width="30" height="29" stroke="black" stroke-dasharray="1 3"/>
<path d="M280.331 1354.5V1337.5H297.331" stroke="black" stroke-width="0.480769"/>
<path d="M408.331 1384.5V1401.5H391.331" stroke="black" stroke-width="0.480769"/>
</g>
<g clip-path="url(#clip9_615_254)">
<rect x="310.331" y="1406.5" width="30" height="29" stroke="black" stroke-dasharray="1 3"/>
<rect x="348.331" y="1406.5" width="30" height="29" stroke="black" stroke-dasharray="1 3"/>
<rect x="310.331" y="1435.5" width="30" height="29" stroke="black" stroke-dasharray="1 3"/>
<rect x="348.331" y="1435.5" width="30" height="29" stroke="black" stroke-dasharray="1 3"/>
<path d="M280.331 1420.5V1403.5H297.331" stroke="black" stroke-width="0.480769"/>
<path d="M408.331 1450.5V1467.5H391.331" stroke="black" stroke-width="0.480769"/>
</g>
<g clip-path="url(#clip10_615_254)">
<rect x="352.331" y="1042.5" width="30" height="29" stroke="black" stroke-dasharray="1 3"/>
<rect x="390.331" y="1042.5" width="30" height="29" stroke="black" stroke-dasharray="1 3"/>
<rect x="352.331" y="1071.5" width="30" height="29" stroke="black" stroke-dasharray="1 3"/>
<rect x="390.331" y="1071.5" width="30" height="29" stroke="black" stroke-dasharray="1 3"/>
<path d="M322.331 1056.5V1039.5H339.331" stroke="black" stroke-width="0.480769"/>
<path d="M450.331 1086.5V1103.5H433.331" stroke="black" stroke-width="0.480769"/>
</g>
<defs>
<clipPath id="clip0_615_254">
<rect width="64" height="64" fill="white" transform="translate(93.3311 1139.5)"/>
</clipPath>
<clipPath id="clip1_615_254">
<rect width="64" height="64" fill="white" transform="translate(93.3311 1205.5)"/>
</clipPath>
<clipPath id="clip2_615_254">
<rect width="64" height="64" fill="white" transform="translate(93.3311 1271.5)"/>
</clipPath>
<clipPath id="clip3_615_254">
<rect width="64" height="64" fill="white" transform="translate(93.3311 1337.5)"/>
</clipPath>
<clipPath id="clip4_615_254">
<rect width="64" height="64" fill="white" transform="translate(93.3311 1403.5)"/>
</clipPath>
<clipPath id="clip5_615_254">
<rect width="128" height="64" fill="white" transform="translate(280.331 1139.5)"/>
</clipPath>
<clipPath id="clip6_615_254">
<rect width="128" height="64" fill="white" transform="translate(280.331 1205.5)"/>
</clipPath>
<clipPath id="clip7_615_254">
<rect width="128" height="64" fill="white" transform="translate(280.331 1271.5)"/>
</clipPath>
<clipPath id="clip8_615_254">
<rect width="128" height="64" fill="white" transform="translate(280.331 1337.5)"/>
</clipPath>
<clipPath id="clip9_615_254">
<rect width="128" height="64" fill="white" transform="translate(280.331 1403.5)"/>
</clipPath>
<clipPath id="clip10_615_254">
<rect width="128" height="64" fill="white" transform="translate(322.331 1039.5)"/>
</clipPath>
</defs>
</svg>
