0
SECTION
2
HEADER
9
$INSUNITS
70
4
9
$ACADVER
1
AC1014
9
$HANDSEED
5
FFFF
0
ENDSEC
0
SECTION
2
TABLES
0
TABLE
2
VPORT
5
8
100
AcDbSymbolTable
0
ENDTAB
0
TABLE
2
LTYPE
5
5
100
AcDbSymbolTable
0
LTYPE
5
14
100
AcDbSymbolTableRecord
100
AcDbLinetypeTableRecord
2
BYBLOCK
70
0
0
LTYPE
5
15
100
AcDbSymbolTableRecord
100
AcDbLinetypeTableRecord
2
BYLAYER
70
0
0
LTYPE
5
16
100
AcDbSymbolTableRecord
100
AcDbLinetypeTableRecord
2
DASHED
70
0
3
Dashed __ __ __ __ __ __ __ __ __ __ __ __ __ _
72
65
73
2
40
0.75
49
0.5
74
0
49
-0.25
74
0
0
ENDTAB
0
TABLE
2
LAYER
5
2
100
AcDbSymbolTable
70
2
0
LAYER
5
50
100
AcDbSymbolTableRecord
100
AcDbLayerTableRecord
2
0
70
0
62
7
6
CONTINUOUS
0
ENDTAB
0
TABLE
2
STYLE
5
3
100
AcDbSymbolTable
70
1
0
STYLE
5
11
100
AcDbSymbolTableRecord
100
AcDbTextStyleTableRecord
2
STANDARD
70
0
0
ENDTAB
0
TABLE
2
VIEW
5
6
100
AcDbSymbolTable
70
0
0
ENDTAB
0
TABLE
2
UCS
5
7
100
AcDbSymbolTable
70
0
0
ENDTAB
0
TABLE
2
APPID
5
9
100
AcDbSymbolTable
70
2
0
APPID
5
12
100
AcDbSymbolTableRecord
100
AcDbRegAppTableRecord
2
ACAD
70
0
0
ENDTAB
0
TABLE
2
DIMSTYLE
5
A
100
AcDbSymbolTable
70
1
0
ENDTAB
0
TABLE
2
BLOCK_RECORD
5
1
100
AcDbSymbolTable
70
1
0
BLOCK_RECORD
5
1F
100
AcDbSymbolTableRecord
100
AcDbBlockTableRecord
2
*MODEL_SPACE
0
BLOCK_RECORD
5
1B
100
AcDbSymbolTableRecord
100
AcDbBlockTableRecord
2
*PAPER_SPACE
0
ENDTAB
0
ENDSEC
0
SECTION
2
BLOCKS
0
BLOCK
5
20
100
AcDbEntity
100
AcDbBlockBegin
2
*MODEL_SPACE
0
ENDBLK
5
21
100
AcDbEntity
100
AcDbBlockEnd
0
BLOCK
5
1C
100
AcDbEntity
100
AcDbBlockBegin
2
*PAPER_SPACE
0
ENDBLK
5
1D
100
AcDbEntity
100
AcDbBlockEnd
0
ENDSEC
0
SECTION
2
ENTITIES
0
LWPOLYLINE
5
100
100
AcDbEntity
8
0
100
AcDbPolyline
90
35
70
1
43
0.0
10
0.69999999999999929
20
-8.708203932499373
10
1.6999999999999997
20
-9.7082039324993712
10
7.0534230275096776
20
-9.7082039324993712
10
8.7077217210883511
20
-4.6167960777017658
10
8.0656821991681422
20
-3.3567225670316621
10
5.2125126502826848
20
-2.4296715839068135
10
5.6451364424076083
20
-1.0981924610936111
10
8.4983059912930692
20
-2.0252434442184502
10
9.7583795019631729
20
-1.3832039222982428
10
11.412678195541845
20
3.7082039324993654
10
7.081667988208336
20
6.854867037352478
10
5.6848657415409276
20
6.6336352952700217
10
3.9215099846635115
20
4.206584312145182
10
2.7888861925385831
20
5.0294836653546433
10
4.5522419494159774
20
7.4565346484794457
10
4.3310102073335175
20
8.8533368951468852
10
1.2453428718130005e-15
20
12.000000000000002
10
-4.3310102073335113
20
8.8533368951468905
10
-4.5522419494159845
20
7.456534648479467
10
-2.7888861925385706
20
5.029483665354622
10
-3.9215099846635013
20
4.2065843121451643
10
-5.6848657415409125
20
6.6336352952700075
10
-7.0816679882083333
20
6.8548670373524807
10
-11.412678195541844
20
3.7082039324993712
10
-9.769511393263743
20
-1.3489434837048435
10
-8.5094378825936428
20
-1.9909830056250513
10
-5.6562683337081809
20
-1.0639320225002105
10
-5.2013807589821113
20
-2.4639320225002099
10
-8.054550307867574
20
-3.3909830056250527
10
-8.6965898297877793
20
-4.651056516295152
10
-7.0534230275096803
20
-9.7082039324993694
10
-1.7000000000000026
20
-9.7082039324993694
10
-0.70000000000000273
20
-8.708203932499373
10
-0.70000000000000329
20
-5.7082039324993703
10
0.69999999999999785
20
-5.7082039324993703
0
ENDSEC
0
SECTION
2
OBJECTS
0
DICTIONARY
5
C
100
AcDbDictionary
3
ACAD_GROUP
350
D
3
ACAD_MLINESTYLE
350
17
0
DICTIONARY
5
D
100
AcDbDictionary
0
DICTIONARY
5
1A
330
C
100
AcDbDictionary
0
DICTIONARY
5
17
100
AcDbDictionary
0
ENDSEC
0
EOF
